<?xml version="1.0" encoding="UTF-8" standalone="no"?><!DOCTYPE svg PUBLIC "-//W3C//DTD SVG 1.1//EN" "http://www.w3.org/Graphics/SVG/1.1/DTD/svg11.dtd"><svg width="100%" height="100%" viewBox="0 0 6000 1800" version="1.1" xmlns="http://www.w3.org/2000/svg" xmlns:xlink="http://www.w3.org/1999/xlink" xml:space="preserve" xmlns:serif="http://www.serif.com/" style="fill-rule:evenodd;clip-rule:evenodd;stroke-linejoin:round;stroke-miterlimit:2;"><rect id="Main-Logo" serif:id="Main Logo" x="0" y="0" width="6000" height="1800" style="fill:none;"/><g id="Main-Logo1" serif:id="Main Logo"><g><g><path d="M653.229,1105.46c-17.818,58.206 -72.006,100.584 -136.014,100.584c-78.491,-0 -142.215,-63.724 -142.215,-142.215c-0,-78.49 63.724,-142.214 142.215,-142.214c59.526,-0 110.56,36.651 131.745,88.599l38.527,0c26.284,0 47.623,21.339 47.623,47.623c0,26.284 -21.339,47.623 -47.623,47.623l-34.258,0Zm-136.014,6.646c26.644,0 48.277,-21.632 48.277,-48.277c-0,-26.644 -21.633,-48.277 -48.277,-48.277c-26.645,0 -48.277,21.633 -48.277,48.277c-0,26.645 21.632,48.277 48.277,48.277Z" style="fill:url(#_Linear1);"/><path d="M1898.75,947.647l-104.167,0c-71.595,0 -114.623,-41.929 -150.065,-94.491c-15.099,-22.392 -28.711,-46.669 -45.092,-66.697c-15.46,-18.903 -34.142,-33.094 -65.382,-27.681c-28.597,4.955 -43.099,31.929 -55.597,63.253c-27.99,70.153 -36.23,166.605 -49.83,234.688c-7.505,37.568 -17.364,68.047 -29.512,86.749c-16.854,25.949 -38.979,37.389 -63.849,37.389c-25.435,0 -48.812,-10.867 -69.163,-32.688c-18.362,-19.688 -34.907,-50.83 -50.174,-85.988c-15.273,-35.173 -29.826,-74.836 -47.621,-105.612c-5.378,-9.3 -10.945,-17.664 -17.229,-24.201c-3.371,-3.508 -6.248,-7.254 -10.694,-7.254c-10.436,-0 -15.315,9.155 -21.183,17.889c-9.19,13.678 -17.023,30.04 -25.341,46.323c-31.299,61.273 -71.186,116.132 -145.621,116.132c-26.284,0 -47.623,-21.339 -47.623,-47.623c0,-26.284 21.339,-47.623 47.623,-47.623c21.161,0 32.322,-15.205 42.552,-31.259c12.072,-18.945 21.858,-40.713 32.417,-60.447c27.662,-51.701 63.121,-88.638 117.176,-88.638c32.674,-0 61.304,15.183 85.392,43.126c23.917,27.745 43.687,70.641 61.819,113.992c12.392,29.627 24.1,59.361 37.584,81.581c0.109,0.18 0.221,0.361 0.335,0.543c5.862,-21.786 14.38,-55.6 18.969,-83.933c12.023,-74.223 25.73,-160.613 55.862,-221.811c26.234,-53.282 64.685,-89.294 117.447,-98.436c80.398,-13.93 127.365,22.462 165.303,74.066c16.54,22.498 31.021,48.33 47.597,71.24c15.834,21.884 33.047,42.166 63.9,42.166l104.167,-0c19.603,-55.1 72.242,-94.592 134.032,-94.592c78.491,-0 142.215,63.724 142.215,142.215c-0,78.49 -63.724,142.214 -142.215,142.214c-61.79,0 -114.429,-39.492 -134.032,-94.592Zm134.032,0.655c26.645,-0 48.277,-21.633 48.277,-48.277c0,-26.645 -21.632,-48.278 -48.277,-48.278c-26.644,0 -48.277,21.633 -48.277,48.278c0,26.644 21.633,48.277 48.277,48.277Z" style="fill:url(#_Linear2);"/><path d="M1691.45,1039.44c-7.468,-25.201 6.928,-51.724 32.128,-59.192c25.2,-7.469 51.723,6.927 59.192,32.127c4.304,14.524 9.111,31.094 14.067,48.821c24.341,87.053 -7.029,150.08 -55.086,184.419c-71.913,51.386 -190.065,38.944 -245.485,-65.677c-11.685,-22.056 -23.325,-47.486 -34.743,-75.004c-10.074,-24.277 1.457,-52.165 25.734,-62.238c24.277,-10.074 52.165,1.457 62.239,25.734c10.184,24.544 20.514,47.25 30.936,66.923c24.185,45.656 74.562,55.192 105.944,32.767c20.826,-14.881 29.282,-43.552 18.734,-81.277c-4.813,-17.212 -9.48,-33.301 -13.66,-47.403Z" style="fill:url(#_Linear3);"/><path d="M1385.44,653.097c14.318,22.042 8.048,51.561 -13.994,65.879c-22.042,14.318 -51.561,8.047 -65.879,-13.994c-35.357,-54.431 -86.637,-90.471 -145.319,-83.973c-65.604,7.265 -134.05,63.208 -199.749,180.331c-119.351,212.771 -112.421,290.266 -55.865,346.823c38.66,38.66 135.255,44.833 214.875,-47.733c17.14,-19.926 47.233,-22.189 67.16,-5.049c19.926,17.14 22.189,47.233 5.049,67.159c-130.201,151.371 -291.213,116.191 -354.433,52.972c-74.462,-74.462 -116.993,-180.634 40.145,-460.769c86.774,-154.695 185.686,-218.806 272.335,-228.401c93.562,-10.361 179.301,39.97 235.675,126.755Z" style="fill:url(#_Linear4);"/></g><g><g transform="matrix(1071.43,0,0,1071.43,5641.07,996.429)"></g><text x="3910.71px" y="996.429px" style="font-family:'Dongle-Bold', 'Dongle';font-weight:700;font-size:1071.43px;fill:#0aa3c2;">m<tspan x="4473.21px 4821.43px 5180.36px 5330.36px " y="996.429px 996.429px 996.429px 996.429px ">edis</tspan></text><g transform="matrix(1071.43,0,0,1071.43,3942.86,996.429)"></g><text x="2357.14px" y="996.429px" style="font-family:'Dongle-Bold', 'Dongle';font-weight:700;font-size:1071.43px;fill:#053361;">m<tspan x="2919.64px 3069.64px 3310.71px 3546.43px " y="996.429px 996.429px 996.429px 996.429px ">itra</tspan></text><g transform="matrix(210.598,0,0,210.598,4822.3,1228.88)"></g><text x="2387.36px" y="1228.88px" style="font-family:'Prompt-Medium', 'Prompt';font-weight:500;font-size:210.598px;fill:#053361;">p<tspan x="2526.36px 2652.09px 2742.01px 2827.94px 2960.61px 3093.08px 3183.01px 3263.03px 3372.33px 3504.8px 3634.32px 3754.78px 3840.7px 3920.73px 4064.99px 4197.46px 4284.22px 4390.37px 4516.09px 4700.79px " y="1228.88px 1228.88px 1228.88px 1228.88px 1228.88px 1228.88px 1228.88px 1228.88px 1228.88px 1228.88px 1228.88px 1228.88px 1228.88px 1228.88px 1228.88px 1228.88px 1228.88px 1228.88px 1228.88px 1228.88px ">artner sehat bersama</tspan></text></g></g></g><defs><linearGradient id="_Linear1" x1="0" y1="0" x2="1" y2="0" gradientUnits="userSpaceOnUse" gradientTransform="matrix(1787.43,0,0,1787.43,375,870.791)"><stop offset="0" style="stop-color:#1d43c8;stop-opacity:1"/><stop offset="1" style="stop-color:#3dd6f5;stop-opacity:1"/></linearGradient><linearGradient id="_Linear2" x1="0" y1="0" x2="1" y2="0" gradientUnits="userSpaceOnUse" gradientTransform="matrix(1787.43,0,0,1787.43,387.569,870.791)"><stop offset="0" style="stop-color:#1d43c8;stop-opacity:1"/><stop offset="1" style="stop-color:#3dd6f5;stop-opacity:1"/></linearGradient><linearGradient id="_Linear3" x1="0" y1="0" x2="1" y2="0" gradientUnits="userSpaceOnUse" gradientTransform="matrix(4.59243e-14,-750,750,4.59243e-14,1393.13,1275)"><stop offset="0" style="stop-color:#3dd6f5;stop-opacity:1"/><stop offset="1" style="stop-color:#c3eb47;stop-opacity:1"/></linearGradient><linearGradient id="_Linear4" x1="0" y1="0" x2="1" y2="0" gradientUnits="userSpaceOnUse" gradientTransform="matrix(4.59243e-14,-750,750,4.59243e-14,1393.13,1275)"><stop offset="0" style="stop-color:#3dd6f5;stop-opacity:1"/><stop offset="1" style="stop-color:#c3eb47;stop-opacity:1"/></linearGradient></defs></svg>